# xmcd
#
# Track frame offsets: 
#        150
#        13082
#        23095
#        32351
#        42056
#        52196
#        62202
#        72469
#        83972
#        94754
#
# Disc length: 1381 seconds
#
# Revision: 0
# Processed by: cddbd v1.5.2PL0 Copyright (c) Steve Scherf et al.
# Submitted via: ExactAudioCopy v1.0b1
#
DISCID=7f05630a
DTITLE=Porter Wagoner - An Old Log Cabin For Sale
DYEAR=1965
DGENRE=Country
TTITLE0=An Old Log Cabin For Sale
TTITLE1=Dear Lonesome
TTITLE2=Your Love
TTITLE3=Hey, Maw!
TTITLE4=Our Love Song
TTITLE5=Everything She Touches Gets The Blues
TTITLE6=The Battle Of Little Big Horn
TTITLE7=Tomorrow, We'll Retire
TTITLE8=Let's Squiggle
TTITLE9=Me And Fred And Joe And Bill
EXTD=
EXTT0=
EXTT1=
EXTT2=
EXTT3=
EXTT4=
EXTT5=
EXTT6=
EXTT7=
EXTT8=
EXTT9=
PLAYORDER=
